<svg width="100%" viewBox="0 0 680 470" xmlns="http://www.w3.org/2000/svg" role="img" aria-label="Vectorless RAG with PageIndex">
  <defs>
    <marker id="arrow2" viewBox="0 0 10 10" refX="8" refY="5" markerWidth="6" markerHeight="6" orient="auto-start-reverse">
      <path d="M2 1L8 5L2 9" fill="none" stroke="context-stroke" stroke-width="1.5" stroke-linecap="round" stroke-linejoin="round"/>
    </marker>
  </defs>

  <text x="40" y="30" font-family="sans-serif" font-size="14" font-weight="500" fill="#2C2C2A">Vectorless RAG</text>
  <text x="40" y="48" font-family="sans-serif" font-size="12" fill="#5F5E5A">Reasoning over a hierarchical index</text>

  <rect x="40" y="80" width="130" height="56" rx="8" fill="#F1EFE8" stroke="#5F5E5A" stroke-width="0.5"/>
  <text x="105" y="102" font-family="sans-serif" font-size="14" font-weight="500" fill="#2C2C2A" text-anchor="middle" dominant-baseline="central">Document</text>
  <text x="105" y="120" font-family="sans-serif" font-size="12" fill="#5F5E5A" text-anchor="middle" dominant-baseline="central">PDF, long text</text>

  <rect x="210" y="80" width="160" height="56" rx="8" fill="#EEEDFE" stroke="#534AB7" stroke-width="0.5"/>
  <text x="290" y="102" font-family="sans-serif" font-size="14" font-weight="500" fill="#26215C" text-anchor="middle" dominant-baseline="central">LLM reads structure</text>
  <text x="290" y="120" font-family="sans-serif" font-size="12" fill="#534AB7" text-anchor="middle" dominant-baseline="central">Builds TOC tree</text>

  <line x1="170" y1="108" x2="205" y2="108" stroke="#5F5E5A" stroke-width="1.5" marker-end="url(#arrow2)"/>

  <rect x="420" y="70" width="220" height="80" rx="10" fill="#EEEDFE" stroke="#534AB7" stroke-width="0.5"/>
  <text x="530" y="92" font-family="sans-serif" font-size="14" font-weight="500" fill="#26215C" text-anchor="middle" dominant-baseline="central">Tree index</text>
  <text x="530" y="112" font-family="sans-serif" font-size="12" fill="#534AB7" text-anchor="middle" dominant-baseline="central">Title, summary, page range</text>
  <text x="530" y="130" font-family="sans-serif" font-size="12" fill="#534AB7" text-anchor="middle" dominant-baseline="central">No embeddings stored</text>

  <line x1="370" y1="108" x2="418" y2="108" stroke="#5F5E5A" stroke-width="1.5" marker-end="url(#arrow2)"/>

  <rect x="270" y="200" width="140" height="40" rx="6" fill="#EEEDFE" stroke="#534AB7" stroke-width="0.5"/>
  <text x="340" y="220" font-family="sans-serif" font-size="14" font-weight="500" fill="#26215C" text-anchor="middle" dominant-baseline="central">Section 1</text>

  <line x1="340" y1="240" x2="200" y2="270" stroke="#7F77DD" stroke-width="1"/>
  <line x1="340" y1="240" x2="340" y2="270" stroke="#EF9F27" stroke-width="1.5"/>
  <line x1="340" y1="240" x2="480" y2="270" stroke="#7F77DD" stroke-width="1"/>

  <rect x="140" y="270" width="120" height="40" rx="6" fill="#EEEDFE" stroke="#534AB7" stroke-width="0.5"/>
  <text x="200" y="290" font-family="sans-serif" font-size="14" font-weight="500" fill="#26215C" text-anchor="middle" dominant-baseline="central">1.1</text>

  <rect x="280" y="270" width="120" height="40" rx="8" fill="#FAEEDA" stroke="#BA7517" stroke-width="1.5"/>
  <text x="340" y="290" font-family="sans-serif" font-size="14" font-weight="500" fill="#412402" text-anchor="middle" dominant-baseline="central">1.2 (relevant)</text>

  <rect x="420" y="270" width="120" height="40" rx="6" fill="#EEEDFE" stroke="#534AB7" stroke-width="0.5"/>
  <text x="480" y="290" font-family="sans-serif" font-size="14" font-weight="500" fill="#26215C" text-anchor="middle" dominant-baseline="central">1.3</text>

  <line x1="340" y1="310" x2="280" y2="340" stroke="#EF9F27" stroke-width="1.5"/>
  <line x1="340" y1="310" x2="400" y2="340" stroke="#7F77DD" stroke-width="1"/>

  <rect x="220" y="340" width="120" height="40" rx="8" fill="#FAEEDA" stroke="#BA7517" stroke-width="1.5"/>
  <text x="280" y="360" font-family="sans-serif" font-size="14" font-weight="500" fill="#412402" text-anchor="middle" dominant-baseline="central">pages 22-28</text>

  <rect x="340" y="340" width="120" height="40" rx="6" fill="#EEEDFE" stroke="#534AB7" stroke-width="0.5"/>
  <text x="400" y="360" font-family="sans-serif" font-size="14" font-weight="500" fill="#26215C" text-anchor="middle" dominant-baseline="central">pages 29-34</text>

  <rect x="40" y="200" width="130" height="56" rx="8" fill="#E6F1FB" stroke="#185FA5" stroke-width="0.5"/>
  <text x="105" y="222" font-family="sans-serif" font-size="14" font-weight="500" fill="#042C53" text-anchor="middle" dominant-baseline="central">User query</text>
  <text x="105" y="240" font-family="sans-serif" font-size="12" fill="#185FA5" text-anchor="middle" dominant-baseline="central">Natural language</text>

  <path d="M 170 228 L 268 220" fill="none" stroke="#EF9F27" stroke-width="1.5" marker-end="url(#arrow2)"/>
  <text x="195" y="215" font-family="sans-serif" font-size="12" fill="#5F5E5A">reason</text>

  <rect x="480" y="340" width="160" height="40" rx="8" fill="#E1F5EE" stroke="#0F6E56" stroke-width="0.5"/>
  <text x="560" y="360" font-family="sans-serif" font-size="14" font-weight="500" fill="#04342C" text-anchor="middle" dominant-baseline="central">LLM → answer</text>

  <path d="M 280 380 L 280 410 L 560 410 L 560 382" fill="none" stroke="#EF9F27" stroke-width="1.5" marker-end="url(#arrow2)"/>

  <text x="40" y="445" font-family="sans-serif" font-size="12" fill="#5F5E5A">Highlighted path = reasoning-selected branch. Every answer traces to specific pages.</text>
</svg>
